<?xml version="1.0" standalone="no"?>
<!DOCTYPE svg PUBLIC "-//W3C//DTD SVG 20010904//EN"
 "http://www.w3.org/TR/2001/REC-SVG-20010904/DTD/svg10.dtd">
<svg version="1.0" xmlns="http://www.w3.org/2000/svg"
 width="846.000000pt" height="846.000000pt" viewBox="0 0 846.000000 846.000000"
 preserveAspectRatio="xMidYMid meet">

<g transform="translate(0.000000,846.000000) scale(0.100000,-0.100000)"
fill="#000000" stroke="none">
<path d="M5355 8454 c-157 -38 -254 -101 -378 -247 -96 -113 -197 -308 -277
-537 -18 -52 -41 -102 -50 -110 -11 -9 -23 -43 -30 -85 -6 -38 -24 -122 -40
-185 -230 -913 -271 -2110 -115 -3360 54 -433 92 -676 157 -1003 l31 -157 -45
-68 c-24 -37 -62 -98 -83 -137 -47 -83 -143 -220 -179 -254 -14 -14 -26 -29
-26 -34 0 -19 -249 -376 -496 -712 -150 -204 -352 -459 -509 -645 -132 -155
-411 -432 -512 -507 -95 -71 -170 -105 -184 -82 -17 28 8 256 47 439 194 892
345 1463 574 2165 203 619 441 1243 545 1425 21 36 79 139 130 230 51 91 102
183 115 205 41 72 156 329 169 377 17 61 8 110 -30 153 -54 62 -153 67 -213
12 -21 -19 -166 -248 -166 -262 0 -3 -10 -22 -23 -43 -22 -34 -43 -73 -179
-329 -290 -550 -499 -914 -756 -1322 -189 -299 -414 -620 -421 -600 -10 30 24
282 59 434 21 94 46 206 55 250 41 195 155 663 247 1020 67 262 81 313 225
815 58 201 129 450 159 553 66 233 114 449 114 516 0 100 -56 171 -135 171
-41 0 -107 -35 -147 -77 -52 -56 -141 -201 -208 -338 -109 -225 -119 -249
-196 -480 -102 -308 -138 -438 -249 -900 -26 -105 -83 -394 -110 -555 -14 -85
-27 -156 -29 -157 -1 -1 -19 113 -39 255 -20 141 -59 412 -86 602 -27 190 -58
428 -70 530 -12 101 -25 188 -30 193 -5 5 -15 6 -22 2 -9 -6 -10 -42 -5 -149
3 -78 11 -249 16 -381 10 -230 25 -512 36 -660 18 -250 74 -966 78 -995 3 -19
8 -94 12 -165 6 -126 5 -136 -29 -285 -44 -189 -58 -288 -58 -413 0 -110 12
-164 45 -204 22 -27 24 -39 34 -270 8 -202 13 -248 28 -279 29 -58 65 -79 134
-79 71 0 105 21 138 85 21 43 22 54 22 305 l0 261 41 39 c58 56 226 258 327
392 46 62 86 112 88 110 2 -2 -17 -60 -42 -128 -92 -247 -252 -741 -339 -1044
-68 -235 -201 -781 -226 -925 -27 -155 -33 -454 -10 -535 33 -116 95 -203 178
-247 138 -74 269 -58 453 54 78 47 199 135 282 205 48 40 455 447 508 507 25
28 73 83 107 121 225 255 643 774 728 905 128 196 268 380 280 369 3 -3 27
-84 54 -180 70 -251 105 -363 173 -549 98 -269 158 -367 238 -391 84 -25 167
58 188 189 42 255 -48 923 -298 2212 -196 1010 -227 1177 -290 1555 -41 246
-42 253 -36 420 15 402 81 943 166 1347 75 361 185 707 313 983 70 151 96 196
145 248 54 56 87 49 145 -31 164 -223 277 -685 347 -1427 46 -484 61 -822 67
-1500 6 -683 -2 -1046 -37 -1735 -23 -439 -24 -457 -90 -1330 -49 -657 -55
-747 -66 -1090 -10 -305 15 -502 73 -579 71 -93 236 -93 305 0 62 83 124 308
163 593 15 104 25 205 22 225 -2 20 25 389 60 821 l65 785 2 845 c1 1031 -10
1380 -64 2025 -104 1221 -255 1987 -478 2415 -94 181 -231 319 -371 374 -43
17 -178 29 -216 20z"/>
<path d="M4257 2489 c4 -13 8 -18 11 -10 2 7 -1 18 -6 23 -8 8 -9 4 -5 -13z"/>
<path d="M6401 1394 c0 -11 3 -14 6 -6 3 7 2 16 -1 19 -3 4 -6 -2 -5 -13z"/>
<path d="M6391 1354 c0 -11 3 -14 6 -6 3 7 2 16 -1 19 -3 4 -6 -2 -5 -13z"/>
</g>
</svg>
