<?xml version="1.0" standalone="no"?>
<!DOCTYPE svg PUBLIC "-//W3C//DTD SVG 20010904//EN"
 "http://www.w3.org/TR/2001/REC-SVG-20010904/DTD/svg10.dtd">
<svg version="1.0" xmlns="http://www.w3.org/2000/svg"
 width="700.000000pt" height="700.000000pt" viewBox="0 0 700.000000 700.000000"
 preserveAspectRatio="xMidYMid meet">
<metadata>
Created by potrace 1.14, written by Peter Selinger 2001-2017
</metadata>
<g transform="translate(0.000000,700.000000) scale(0.100000,-0.100000)"
fill="#000000" stroke="none">
<path d="M4385 6981 c-198 -64 -351 -252 -480 -590 -18 -49 -43 -107 -54 -129
-11 -22 -23 -55 -26 -73 -4 -19 -19 -88 -35 -154 -31 -131 -75 -346 -84 -410
-2 -22 -10 -71 -16 -110 -17 -107 -18 -115 -26 -185 -9 -82 -11 -106 -19 -205
-3 -44 -8 -100 -10 -125 -15 -167 -21 -706 -10 -915 11 -218 23 -395 30 -465
3 -25 7 -70 10 -100 10 -99 16 -153 36 -315 11 -88 22 -176 25 -195 2 -19 6
-46 9 -60 3 -14 7 -45 10 -70 9 -76 83 -495 100 -560 4 -19 -4 -40 -32 -85
-22 -33 -53 -85 -71 -115 -18 -30 -57 -89 -87 -130 -30 -41 -96 -135 -145
-209 -118 -173 -409 -576 -481 -665 -5 -6 -75 -94 -156 -196 -156 -195 -455
-506 -553 -576 -102 -72 -142 -88 -153 -61 -6 15 -1 111 8 167 3 19 8 53 11
75 3 22 20 110 39 195 19 85 36 166 39 180 43 207 217 889 246 965 6 17 11 32
11 35 -3 37 248 802 372 1135 143 384 194 495 342 755 145 253 245 473 245
538 0 67 -76 129 -143 117 -76 -15 -112 -71 -457 -720 -46 -86 -153 -279 -255
-460 -170 -301 -554 -895 -616 -951 -18 -17 -19 -16 -14 32 3 27 7 65 10 85 7
68 55 320 77 404 6 22 12 51 15 65 5 28 26 119 85 360 22 91 41 172 43 180 2
8 11 44 20 80 9 36 18 72 20 80 2 8 16 60 30 114 15 55 29 110 31 124 3 14 68
246 146 516 174 609 225 806 232 906 6 76 -46 150 -105 150 -44 0 -103 -34
-142 -82 -113 -141 -283 -505 -352 -758 -3 -8 -21 -69 -40 -135 -37 -122 -129
-482 -140 -544 -3 -19 -8 -37 -10 -41 -2 -4 -7 -22 -10 -41 -3 -19 -10 -54
-15 -79 -12 -57 -16 -75 -44 -238 -22 -128 -35 -171 -37 -121 0 13 -2 33 -4
44 -3 11 -7 40 -10 65 -3 25 -10 72 -15 105 -5 33 -11 78 -15 100 -3 22 -10
67 -15 100 -5 33 -11 78 -14 100 -2 22 -12 90 -20 150 -20 133 -19 130 -51
380 -14 110 -28 208 -31 218 -8 26 -24 20 -25 -10 -2 -51 7 -331 16 -488 2
-33 6 -118 10 -190 3 -71 8 -150 10 -175 2 -25 6 -92 10 -150 4 -58 8 -121 10
-140 1 -19 6 -75 10 -125 3 -49 8 -106 10 -125 3 -30 14 -173 20 -265 1 -16 6
-73 11 -125 15 -166 10 -275 -19 -400 -34 -151 -41 -205 -40 -322 0 -85 3
-104 26 -148 22 -42 27 -68 32 -167 15 -283 18 -304 60 -343 33 -31 111 -31
154 -1 47 34 54 74 57 308 l2 212 38 38 c46 45 94 99 149 168 22 28 44 55 50
61 5 7 36 46 69 88 32 43 60 76 61 74 2 -2 -21 -73 -51 -158 -87 -246 -213
-646 -277 -875 -52 -185 -151 -601 -163 -680 -3 -16 -7 -41 -10 -55 -13 -55
-13 -337 0 -392 36 -154 156 -251 303 -242 60 3 151 33 184 61 8 7 18 13 22
13 9 0 116 73 182 124 66 51 328 307 469 456 90 96 378 437 477 565 29 39 56
72 60 75 12 9 135 175 189 255 76 111 132 187 173 235 30 35 36 38 42 23 6
-16 100 -333 110 -373 17 -68 106 -305 147 -388 56 -115 93 -152 149 -152 45
1 83 33 110 95 20 44 23 67 23 185 1 177 -7 274 -45 535 -24 169 -18 127 -75
480 -3 17 -11 62 -19 100 -7 39 -16 90 -20 115 -3 25 -8 52 -11 61 -2 9 -11
52 -19 95 -11 65 -48 259 -70 374 -3 14 -12 61 -20 105 -8 44 -24 125 -35 180
-11 55 -23 114 -25 130 -3 17 -17 89 -31 160 -37 188 -61 323 -69 375 -3 25
-10 61 -15 80 -5 19 -12 55 -15 80 -4 25 -13 83 -21 130 -24 133 -28 177 -28
290 1 100 11 306 19 360 2 14 6 57 10 95 3 39 8 81 10 95 2 14 6 50 10 80 4
30 8 66 10 80 2 14 7 45 10 70 3 25 10 70 15 100 5 30 12 73 16 95 3 22 9 58
14 80 5 22 12 56 15 75 11 64 64 280 96 388 69 241 212 574 278 653 17 20 40
39 53 42 48 13 139 -125 199 -304 44 -130 73 -254 104 -436 2 -16 7 -39 9 -53
16 -81 49 -363 61 -525 3 -38 7 -88 10 -110 4 -46 14 -192 20 -310 25 -445 24
-1413 0 -1925 -2 -47 -7 -139 -10 -205 -6 -141 -13 -261 -20 -365 -13 -186
-16 -229 -21 -295 -3 -38 -7 -97 -9 -130 -2 -33 -6 -89 -9 -125 -3 -36 -8 -99
-11 -140 -5 -71 -9 -125 -19 -265 -3 -33 -8 -100 -11 -150 -3 -49 -8 -112 -10
-140 -18 -233 -25 -642 -12 -743 18 -149 61 -210 155 -227 71 -12 138 26 176
102 16 33 63 185 72 237 3 17 9 49 14 71 15 68 38 274 45 400 4 66 8 138 10
160 3 22 7 76 10 120 6 94 14 190 20 260 3 28 7 86 10 130 3 44 7 100 10 125
2 25 7 79 10 120 3 41 8 91 10 110 15 141 19 317 18 915 0 606 -7 1065 -18
1225 -2 30 -7 100 -10 155 -14 220 -27 367 -49 595 -6 61 -17 153 -26 230 -5
41 -12 96 -15 122 -3 26 -7 62 -10 80 -2 18 -9 69 -15 113 -11 76 -14 100 -26
170 -99 613 -241 1016 -418 1187 -55 54 -121 99 -171 116 -60 21 -161 22 -220
3z"/>
</g>
</svg>
